<?xml version="1.0" standalone="no"?>
<!DOCTYPE svg PUBLIC "-//W3C//DTD SVG 20010904//EN"
 "http://www.w3.org/TR/2001/REC-SVG-20010904/DTD/svg10.dtd">
<svg version="1.0" xmlns="http://www.w3.org/2000/svg"
 width="1024.000000pt" height="1024.000000pt" viewBox="0 0 1024.000000 1024.000000"
 preserveAspectRatio="xMidYMid meet">

<g transform="translate(0.000000,1024.000000) scale(0.100000,-0.100000)"
fill="#000000" stroke="none">
<path d="M4920 7495 c-100 -17 -148 -31 -258 -77 -321 -134 -564 -393 -675
-718 -50 -146 -58 -210 -64 -472 l-5 -248 -215 0 c-227 0 -259 -6 -283 -49 -7
-13 -10 -528 -10 -1576 0 -1659 -2 -1601 45 -1619 22 -8 3308 -8 3330 0 47 18
45 -40 45 1619 0 1048 -3 1563 -10 1576 -24 43 -56 49 -283 49 l-215 0 -5 248
c-6 262 -14 326 -64 472 -119 349 -404 633 -754 750 -172 57 -401 75 -579 45z
m485 -199 c99 -30 230 -92 285 -135 19 -15 44 -33 55 -38 32 -18 161 -153 205
-216 148 -213 190 -371 190 -719 l0 -208 -1020 0 -1020 0 0 206 c0 287 21 403
101 569 111 231 315 420 550 511 148 57 192 64 389 60 156 -3 185 -6 265 -30z
m1245 -2941 l0 -1445 -1530 0 -1530 0 0 1445 0 1445 1530 0 1530 0 0 -1445z"/>
<path d="M5053 5110 c-131 -19 -253 -111 -314 -237 -31 -64 -33 -74 -34 -178
0 -105 2 -114 33 -178 18 -37 55 -90 83 -118 l49 -50 0 -282 c0 -275 1 -283
24 -332 89 -192 363 -192 452 0 23 49 24 57 24 332 l0 282 49 50 c28 28 65 81
83 118 31 64 33 74 33 173 0 88 -4 114 -24 160 -80 187 -259 288 -458 260z
m149 -170 c91 -26 168 -124 176 -225 8 -99 -24 -159 -136 -258 l-32 -29 0
-310 0 -310 -29 -29 c-20 -20 -39 -29 -61 -29 -22 0 -41 9 -61 29 l-29 29 0
310 0 310 -32 29 c-112 99 -144 159 -136 258 14 166 173 271 340 225z"/>
</g>
</svg>
