<?xml version="1.0" standalone="no"?>
<!DOCTYPE svg PUBLIC "-//W3C//DTD SVG 20010904//EN"
 "http://www.w3.org/TR/2001/REC-SVG-20010904/DTD/svg10.dtd">
<svg version="1.0" xmlns="http://www.w3.org/2000/svg"
 width="1197.000000pt" height="1280.000000pt" viewBox="0 0 1197.000000 1280.000000"
 preserveAspectRatio="xMidYMid meet">

<g transform="translate(0.000000,1280.000000) scale(0.100000,-0.100000)"
fill="#000000" stroke="none">
<path d="M5780 9985 c-112 -18 -190 -38 -270 -68 -80 -30 -254 -116 -258 -128
-2 -5 -8 -9 -14 -9 -12 0 -116 -78 -193 -145 -149 -130 -305 -365 -364 -550
-13 -38 -29 -83 -36 -100 -35 -78 -45 -204 -45 -555 0 -190 4 -379 9 -420 35
-261 168 -540 353 -741 52 -56 198 -181 259 -221 324 -214 752 -283 1124 -181
154 42 391 159 481 236 93 81 175 159 209 199 22 26 50 58 61 72 65 75 165
267 210 404 57 174 64 240 64 640 0 325 -3 378 -20 459 -92 439 -359 785 -756
981 -123 61 -191 85 -325 113 -133 27 -366 34 -489 14z m403 -190 c253 -44
467 -155 647 -335 157 -157 257 -330 316 -544 32 -117 45 -332 38 -626 -6
-223 -20 -339 -56 -450 -24 -75 -101 -235 -146 -300 -170 -251 -447 -439 -741
-503 -130 -28 -377 -30 -501 -3 -174 37 -337 112 -481 220 -190 143 -343 357
-417 586 -50 153 -57 224 -57 570 0 298 2 334 23 437 20 101 65 231 108 316
65 127 275 360 401 445 129 88 301 157 462 186 103 19 299 19 404 1z"/>
<path d="M5484 6600 c-200 -17 -440 -65 -555 -110 -27 -11 -61 -20 -74 -20
-13 0 -26 -4 -30 -9 -3 -5 -22 -15 -43 -21 -75 -24 -340 -160 -442 -227 -135
-90 -358 -255 -390 -290 -14 -15 -42 -43 -62 -62 -21 -19 -38 -39 -38 -44 0
-5 -33 -46 -74 -91 -40 -44 -86 -101 -102 -125 -130 -197 -302 -533 -334 -652
-7 -24 -16 -53 -21 -64 -20 -46 -70 -249 -89 -360 -11 -66 -23 -192 -27 -280
l-6 -160 28 -27 28 -28 1729 0 c1160 0 1736 3 1748 10 45 24 45 19 50 770 4
531 9 724 18 750 7 19 22 68 33 109 11 41 29 87 39 102 11 15 20 30 20 34 0
11 61 97 123 172 33 40 82 88 111 106 28 19 89 59 136 90 105 69 132 109 108
161 -19 39 -75 68 -255 132 -159 56 -287 89 -459 115 -125 19 -187 22 -609 24
-258 2 -511 0 -561 -5z m1012 -191 c210 -20 564 -104 564 -133 0 -6 -23 -27
-51 -46 -139 -94 -291 -307 -363 -508 -55 -155 -58 -191 -56 -874 l1 -628
-1601 0 c-1322 0 -1600 2 -1600 13 0 55 25 253 45 353 45 225 160 523 275 709
63 104 194 286 229 319 17 17 31 35 32 40 1 11 91 94 268 246 51 44 131 105
177 135 329 215 647 328 1049 374 107 13 906 13 1031 0z"/>
<path d="M7745 5996 c-122 -23 -263 -98 -350 -184 -83 -83 -160 -218 -186
-327 -6 -27 -13 -56 -15 -62 -2 -9 -26 -13 -74 -13 -66 0 -74 -2 -101 -29
l-29 -29 0 -630 0 -630 26 -31 26 -31 836 0 c885 1 855 -1 880 47 17 31 17
1251 1 1287 -15 33 -30 39 -118 45 l-73 6 -19 75 c-60 236 -252 433 -487 496
-80 21 -233 26 -317 10z m250 -191 c101 -26 176 -69 243 -139 62 -64 115 -156
128 -224 l7 -32 -489 2 -489 3 3 34 c7 94 148 268 259 318 115 53 229 66 338
38z m585 -1085 l0 -500 -700 0 -700 0 0 500 0 500 700 0 700 0 0 -500z"/>
<path d="M7843 5005 c-57 -24 -62 -48 -62 -286 -1 -197 0 -217 19 -247 36 -58
104 -65 151 -16 23 25 24 30 27 237 3 138 0 225 -8 249 -17 59 -73 87 -127 63z"/>
</g>
</svg>
